<?xml version="1.0" encoding="utf-8"?>
<!-- Generator: Adobe Illustrator 23.0.0, SVG Export Plug-In . SVG Version: 6.00 Build 0)  -->
<svg version="1.1"  xmlns="http://www.w3.org/2000/svg" xmlns:xlink="http://www.w3.org/1999/xlink" x="0px" y="0px"
	 viewBox="0 0 1000 200" style="enable-background:new 0 0 1000 200;" xml:space="preserve">
<style type="text/css">
	.st0{fill:#FFFFFF;}
</style>
<g>
	<path class="st0" d="M181.7,103.6c0.8,42.8-35.2,82.3-82.3,82.4c-46.2,0.1-83.2-37.6-83.2-83.3c0-41.8,34.9-82.9,84.6-82.3
		C142.5,21,182.4,56.2,181.7,103.6z M142.4,87.9c-7.3,6.2-12.3,13.9-16.1,22.4c-2.1,4.6-4.9,8.6-8.8,11.8c-0.9,0.7-1.7,1-2.8,0.7
		c-2.4-0.6-4.7-1.2-7.1-1.6c-3.4-0.5-6.7-0.8-10,0.6c-1.4,0.6-2.4,1.5-2.5,3.1s0.8,2.6,2,3.4c1.5,0.9,3.1,1.3,4.8,1.5
		c4.7,0.6,9.2-0.1,13.6-1.9c1-0.4,2-0.7,3.2-0.3c6.2,2.3,12.4,1.6,18.4-0.6c9.7-3.4,14.9-10.8,14.6-20.9c-0.2-6-1.3-11.9-5.2-16.8
		c-1.2-1.5-0.6-2.1,0.7-2.9c1-0.6,2.3-0.9,3-2.1c-0.9-0.6-1.7-0.3-2.3,0.1c-2.5,2-4.4,1.5-7.1-0.3c-6.6-4.5-14-4.5-21.5-2.7
		c-1.8,0.4-3.3,0.4-5-0.7c-1.8-1.2-4-1.9-6.1-2.5c-3.8-0.9-7.7-1.5-11.6-1.8c-12.5-1-24.4,1.1-35.4,7.3c-6.2,3.5-11,8.6-14,15.2
		c-2.6,5.9,0,11.5,6.2,13.5c0.7,0.2,1.4,0.5,2.1,0.6c1.1,0.2,1.5,0.6,1.4,1.9c-0.6,5,1.3,9.1,5.5,12c5.1,3.6,10.7,3.9,16.5,2.3
		c6.2-1.8,11.1-5.1,13.6-11.3c2.4-5.9-0.7-10.5-7-10.9c-0.2,0-0.6,0.2-0.6-0.5c3.9-2.2,7.4-5.1,11-8.1c0.4,1.2-0.2,2-0.4,2.8
		c-1.4,6.1,2.2,12.4,8.2,14s15.7-1,18.9-9.1c1.7-4.3,2.1-8.7,1.2-13.2c-0.7-3.6-2.6-6.5-5-9.1C126.3,80.3,137.4,82.2,142.4,87.9z
		 M171,88.2c0-0.5,0-1,0-1.5c-0.1-0.6-0.2-1.2-0.3-1.7c-6.4-24-21.1-41-43.8-50.8c-7.6-3.3-15.5-5.3-23.8-5.3c-1.4,0-2.6,0.2-3.8,1
		c-2.9,1.9-4,5.6-2.7,8.8s4.7,5,8.4,4c5.6-1.4,11.2-1.5,16.9-1c7,0.7,13.8,2.3,20.1,5.6c8.6,4.5,14.3,11.7,19.2,19.7
		C165.2,73.7,168.3,80.8,171,88.2z M111.1,175.7c1.3,0.4,2.1,0.1,3-0.1c16.8-3.7,30.9-11.8,41.9-25c10.3-12.3,16.3-26.4,17.1-42.5
		c0.2-3-0.9-5.4-3.7-6.7c-2.7-1.3-5.4-1.1-7.7,0.7c-2.3,1.9-3.1,4.4-2.4,7.3c2.8,11.7,1,23-3.3,34c-3.6,9-10.5,15.1-18.4,20.4
		C129.5,169.1,120.6,172.6,111.1,175.7z M26.3,114.8c-0.1,0-0.2,0-0.3,0c0,0.2-0.1,0.4-0.1,0.6c3.3,18.5,12.2,33.8,26.9,45.6
		c11.3,9.1,24.1,14.5,38.7,15.9c3.3,0.3,5.8-0.7,7.6-3.4c1.6-2.5,1.3-5.1-0.2-7.5c-1.8-2.8-4.6-3.6-7.6-2.9
		c-7.1,1.6-14.2,1.1-21.3-0.1c-12.7-2.3-22.9-8.4-30.2-19.3c-4.3-6.3-7.7-13-10.4-20.2C28.2,120.7,27.3,117.7,26.3,114.8z
		 M84.6,30.8c-0.7-0.5-1.3-0.3-1.9-0.2c-3.5,1.1-7.1,1.9-10.5,3.3c-22,9-36.8,24.8-44.1,47.4c-1.9,5.8-3.1,11.8-2.8,18
		c0.1,2,0.8,3.6,2.3,4.8c2.3,1.7,6,1.9,8.3,0.4s3.8-4.7,3-7.6c-2.1-7.7-1.7-15.5-0.2-23.2c1.9-9.9,6-18.6,13.7-25.4
		C60,41.6,68.7,36.9,78,33.2C80.1,32.4,82.3,31.7,84.6,30.8z"/>
	<path class="st0" d="M102.5,90.4c-0.4-1-0.1-1.6,0-2.2c0.7-3.9-1.6-6.8-5.6-7.1c-2.7-0.2-5.3,0.4-7.7,1.5
		c-8,3.4-14.5,8.7-20.5,14.7c-3.9,3.9-7.3,8.1-10,12.9c-0.6,1-1.3,1.2-2.3,1.1c-5.2-0.6-7.7-4-6.2-8.9c2-6.7,6.5-11.6,12.2-15.5
		c5.6-3.9,12-6,18.7-6.9c10.1-1.5,20.1-1.2,29.9,2.4c0.8,0.3,1.7,0.5,2.5,1.3C109.4,85.3,105.9,87.7,102.5,90.4z"/>
	<path class="st0" d="M121.8,99.5c0.2,8.1-6.6,14.9-14.5,14.6c-4.4-0.1-7.1-2.8-6.8-7.2c0.3-5.2,2.7-9.6,5.6-13.7
		c2.1-3,4.7-5.4,7.8-7.4c1.3-0.9,2.1-0.8,3.1,0.5C120.3,90.2,121.5,94.8,121.8,99.5z"/>
	<path class="st0" d="M144.1,89.1c6.3,7.6,7.2,22.1,0,29.8c-5.6,5.9-16.7,9.3-21.9,6.2c2.7-1.6,5.3-3.2,7.6-5.3
		c3.4-3.1,5.8-6.8,7.1-11.2c1.3-4.7,2.5-9.4,4.3-13.9C142,92.8,142.8,90.9,144.1,89.1z"/>
	<path class="st0" d="M77.7,110.2c-1.3,2.4-3,4.3-3.4,7c-0.1,0.5-0.2,1-0.2,1.5c0,0.7,0.1,1.5,0.9,1.6c0.9,0.1,1-0.7,1.1-1.3
		c0.5-1.7,0.9-3.4,1.7-5c1.7-3.2,4.6-4.9,8.1-4.6c2.3,0.2,3.8,1.5,4.4,3.6c0.6,2.2,0.4,4.2-0.7,6.2c-3.2,5.8-13.5,10.3-19.9,8.8
		c-3.3-0.8-4.5-2.4-4.6-5.8c0-1.2,0.1-2.3,0.3-3.5c0.5-3.4,1.6-6,5.6-6.4C73.3,112,75.5,110.9,77.7,110.2z"/>
	<path class="st0" d="M69.7,110.8c0-0.8,0.4-1.3,0.7-1.8c5.2-8.4,11.2-16.2,18.6-22.9c1.5-1.4,3.2-2.6,5.1-3.4c1.5-0.6,3-1,4.4,0.2
		s1,2.9,0.5,4.3c-0.7,2.3-2,4.3-3.4,6.1c-5.2,6.7-11.4,12.3-19.4,15.6C74.1,109.9,72,110.7,69.7,110.8z"/>
	<path class="st0" d="M114.1,125.4c-4.7,3.3-9.5,3.8-14.5,2.1c-1.3-0.4-2.8-1.1-2.6-2.9c0.2-1.7,1.8-2.1,3.1-2.3
		c3.3-0.5,6.4,0.1,9.6,1.1C111.1,124,112.5,124.4,114.1,125.4z"/>
</g>
<g>
	<g>
		<path class="st0" d="M299.5,54.5l-9.1,8.7c-6.2-6.5-13.1-9.8-20.9-9.8c-6.5,0-12,2.2-16.5,6.7s-6.7,10-6.7,16.5
			c0,4.6,1,8.6,3,12.1s4.8,6.3,8.4,8.3s7.6,3,12.1,3c3.8,0,7.2-0.7,10.3-2.1c3.1-1.4,6.6-4,10.3-7.7l8.8,9.2
			c-5,4.9-9.8,8.3-14.3,10.2c-4.5,1.9-9.6,2.9-15.4,2.9c-10.6,0-19.3-3.4-26.1-10.1S233.3,87,233.3,76.5c0-6.8,1.5-12.9,4.6-18.2
			s7.5-9.5,13.2-12.8c5.7-3.2,11.9-4.8,18.6-4.8c5.6,0,11.1,1.2,16.3,3.6S295.7,50.1,299.5,54.5z"/>
		<path class="st0" d="M310.9,42.5h15.4c9.9,0,17.3,1.2,22.1,3.7c4.8,2.5,8.8,6.5,11.9,12s4.7,12,4.7,19.4c0,5.3-0.9,10.1-2.6,14.5
			s-4.2,8.1-7.2,11c-3.1,2.9-6.4,4.9-10,6s-9.8,1.7-18.6,1.7H311L310.9,42.5L310.9,42.5z M323.8,55v43.1h6c5.9,0,10.3-0.7,12.9-2
			c2.7-1.4,4.9-3.7,6.6-6.9c1.7-3.2,2.6-7.2,2.6-11.9c0-7.3-2-12.9-6.1-16.9c-3.7-3.6-9.5-5.4-17.6-5.4C328.2,55,323.8,55,323.8,55z
			"/>
		<path class="st0" d="M404,110.8V42.5h10.7c6.2,0,10.8,0.4,13.7,1.2c4.1,1.1,7.3,3.1,9.8,6c2.4,2.9,3.6,6.4,3.6,10.4
			c0,2.6-0.5,5-1.6,7.1s-2.9,4.1-5.4,6c4.1,2,7.2,4.4,9.1,7.3s2.9,6.4,2.9,10.4c0,3.8-1,7.3-3,10.5s-4.5,5.5-7.7,7.1
			c-3.1,1.6-7.5,2.3-13,2.3H404z M417,54.9v14.4h2.8c3.2,0,5.5-0.7,7.1-2c1.5-1.3,2.3-3.1,2.3-5.4c0-2.1-0.7-3.8-2.2-5.1
			s-3.7-1.9-6.7-1.9H417z M417,80.9v17.5h3.3c5.4,0,9-0.7,10.9-2c1.9-1.4,2.8-3.3,2.8-5.9c0-2.9-1.1-5.3-3.3-7
			c-2.2-1.7-5.9-2.6-11-2.6H417z"/>
		<path class="st0" d="M462.8,39.5c2.2,0,4.1,0.8,5.7,2.4c1.6,1.6,2.4,3.6,2.4,5.9c0,2.3-0.8,4.2-2.4,5.8S465,56,462.9,56
			c-2.3,0-4.2-0.8-5.8-2.4c-1.6-1.6-2.4-3.6-2.4-5.9c0-2.2,0.8-4.1,2.4-5.7C458.6,40.3,460.5,39.5,462.8,39.5z M456.4,60.3h12.7
			v50.5h-12.7V60.3z"/>
		<path class="st0" d="M504.3,59c4.8,0,9.2,1.2,13.4,3.6c4.2,2.4,7.5,5.6,9.8,9.7c2.4,4.1,3.5,8.5,3.5,13.2c0,4.8-1.2,9.2-3.6,13.4
			c-2.4,4.1-5.6,7.4-9.7,9.7c-4.1,2.3-8.6,3.5-13.5,3.5c-7.2,0-13.4-2.6-18.6-7.7c-5.1-5.2-7.7-11.4-7.7-18.8
			c0-7.9,2.9-14.5,8.7-19.7C491.9,61.3,497.7,59,504.3,59z M504.6,70.9c-3.9,0-7.2,1.4-9.8,4.1c-2.6,2.7-3.9,6.2-3.9,10.5
			c0,4.4,1.3,8,3.9,10.7s5.9,4.1,9.8,4.1s7.3-1.4,9.9-4.1c2.6-2.8,4-6.3,4-10.6c0-4.3-1.3-7.9-3.9-10.6
			C511.9,72.3,508.6,70.9,504.6,70.9z"/>
		<path class="st0" d="M578.7,51.8l-9.6,8.5c-3.4-4.7-6.8-7.1-10.3-7.1c-1.7,0-3.1,0.5-4.2,1.4c-1.1,0.9-1.6,1.9-1.6,3.1
			c0,1.1,0.4,2.2,1.2,3.3c1.1,1.4,4.2,4.3,9.5,8.8c5,4.1,8,6.8,9,7.8c2.6,2.7,4.5,5.2,5.6,7.6s1.7,5.1,1.7,8
			c0,5.6-1.9,10.2-5.8,13.9c-3.9,3.7-8.9,5.5-15.2,5.5c-4.9,0-9.1-1.2-12.7-3.6c-3.6-2.4-6.7-6.1-9.3-11.2l10.9-6.6
			c3.3,6,7.1,9.1,11.3,9.1c2.2,0,4.1-0.7,5.6-2s2.3-2.8,2.3-4.5c0-1.5-0.6-3.1-1.7-4.6c-1.1-1.5-3.7-3.9-7.6-7.1
			c-7.4-6.1-12.2-10.7-14.4-14s-3.3-6.6-3.3-9.9c0-4.7,1.8-8.8,5.4-12.2s8.1-5.1,13.4-5.1c3.4,0,6.7,0.8,9.7,2.4
			C571.8,44.7,575.1,47.6,578.7,51.8z"/>
		<path class="st0" d="M640.4,70.5l-10.6,5.8c-2-2.1-3.9-3.5-5.9-4.3c-1.9-0.8-4.2-1.2-6.8-1.2c-4.7,0-8.6,1.4-11.5,4.2
			c-2.9,2.8-4.4,6.5-4.4,10.9c0,4.3,1.4,7.8,4.2,10.5s6.5,4.1,11.1,4.1c5.7,0,10.1-1.9,13.2-5.8l10,6.8c-5.4,7-13.1,10.6-22.9,10.6
			c-8.9,0-15.8-2.6-20.9-7.9c-5-5.3-7.5-11.4-7.5-18.5c0-4.9,1.2-9.4,3.7-13.5c2.4-4.1,5.9-7.4,10.2-9.7c4.4-2.4,9.3-3.5,14.7-3.5
			c5,0,9.5,1,13.5,3C634.6,64,637.9,66.8,640.4,70.5z"/>
		<path class="st0" d="M656.8,39.5c2.2,0,4.1,0.8,5.7,2.4c1.6,1.6,2.4,3.6,2.4,5.9c0,2.3-0.8,4.2-2.4,5.8c-1.6,1.6-3.5,2.4-5.6,2.4
			c-2.3,0-4.2-0.8-5.8-2.4c-1.6-1.6-2.4-3.6-2.4-5.9c0-2.2,0.8-4.1,2.4-5.7C652.6,40.3,654.5,39.5,656.8,39.5z M650.4,60.3h12.7
			v50.5h-12.7V60.3z"/>
		<path class="st0" d="M725.2,89.2h-40.7c0.6,3.6,2.2,6.4,4.7,8.6c2.6,2.1,5.8,3.2,9.8,3.2c4.7,0,8.8-1.7,12.2-5l10.7,5
			c-2.7,3.8-5.9,6.6-9.6,8.4c-3.7,1.8-8.1,2.7-13.2,2.7c-7.9,0-14.4-2.5-19.4-7.5s-7.5-11.3-7.5-18.8c0-7.7,2.5-14.1,7.5-19.2
			s11.2-7.6,18.7-7.6c8,0,14.4,2.5,19.4,7.6s7.5,11.8,7.5,20.2L725.2,89.2z M712.5,79.2c-0.8-2.8-2.5-5.1-5-6.9s-5.3-2.6-8.6-2.6
			c-3.5,0-6.6,1-9.3,3c-1.7,1.2-3.2,3.4-4.7,6.5H712.5z"/>
		<path class="st0" d="M735.5,60.3h12.7v5.2c2.9-2.4,5.5-4.1,7.8-5.1c2.3-0.9,4.7-1.4,7.2-1.4c5,0,9.3,1.7,12.8,5.2
			c2.9,3,4.4,7.4,4.4,13.2v33.4h-12.5V88.7c0-6-0.3-10-0.8-12s-1.5-3.5-2.8-4.5s-3-1.6-5-1.6c-2.6,0-4.8,0.9-6.6,2.6
			s-3.1,4.1-3.8,7.1c-0.4,1.6-0.6,5-0.6,10.2v20.3h-12.7V60.3H735.5z"/>
		<path class="st0" d="M842,70.5l-10.6,5.8c-2-2.1-3.9-3.5-5.9-4.3c-1.9-0.8-4.2-1.2-6.8-1.2c-4.7,0-8.6,1.4-11.5,4.2
			c-2.9,2.8-4.4,6.5-4.4,10.9c0,4.3,1.4,7.8,4.2,10.5s6.5,4.1,11.1,4.1c5.7,0,10.1-1.9,13.2-5.8l10,6.8c-5.4,7-13.1,10.6-22.9,10.6
			c-8.9,0-15.8-2.6-20.9-7.9c-5-5.3-7.5-11.4-7.5-18.5c0-4.9,1.2-9.4,3.7-13.5c2.4-4.1,5.9-7.4,10.2-9.7c4.4-2.4,9.3-3.5,14.7-3.5
			c5,0,9.5,1,13.5,3C836.2,64,839.5,66.8,842,70.5z"/>
		<path class="st0" d="M904,89.2h-40.7c0.6,3.6,2.2,6.4,4.7,8.6c2.6,2.1,5.8,3.2,9.8,3.2c4.7,0,8.8-1.7,12.2-5l10.7,5
			c-2.7,3.8-5.9,6.6-9.6,8.4c-3.7,1.8-8.1,2.7-13.2,2.7c-7.9,0-14.4-2.5-19.4-7.5S851,93.3,851,85.8c0-7.7,2.5-14.1,7.5-19.2
			s11.2-7.6,18.7-7.6c8,0,14.4,2.5,19.4,7.6s7.5,11.8,7.5,20.2L904,89.2z M891.4,79.2c-0.8-2.8-2.5-5.1-5-6.9s-5.3-2.6-8.6-2.6
			c-3.5,0-6.6,1-9.3,3c-1.7,1.2-3.2,3.4-4.7,6.5H891.4z"/>
		<path class="st0" d="M945.2,67.4l-7.8,7.8c-3.2-3.2-6.1-4.7-8.7-4.7c-1.4,0-2.5,0.3-3.3,0.9s-1.2,1.4-1.2,2.3
			c0,0.7,0.3,1.3,0.8,1.9s1.8,1.4,3.8,2.3l4.6,2.3c4.9,2.4,8.2,4.9,10.1,7.4c1.8,2.5,2.7,5.4,2.7,8.8c0,4.5-1.6,8.2-4.9,11.2
			c-3.3,3-7.7,4.5-13.3,4.5c-7.4,0-13.2-2.9-17.6-8.6l7.8-8.5c1.5,1.7,3.2,3.1,5.2,4.2s3.8,1.6,5.3,1.6c1.7,0,3-0.4,4-1.2
			c1-0.8,1.5-1.7,1.5-2.8c0-2-1.8-3.9-5.5-5.7l-4.3-2.1c-8.2-4.1-12.3-9.3-12.3-15.5c0-4,1.5-7.4,4.6-10.2s7-4.2,11.8-4.2
			c3.3,0,6.4,0.7,9.3,2.2C940.8,62.6,943.2,64.7,945.2,67.4z"/>
	</g>
	<g>
		<path class="st0" d="M971,57.1c0,1.7-0.4,3.3-1.3,4.8c-0.9,1.5-2,2.6-3.5,3.5s-3.1,1.3-4.8,1.3s-3.3-0.4-4.8-1.3s-2.7-2-3.5-3.5
			c-0.9-1.5-1.3-3.1-1.3-4.8s0.4-3.3,1.3-4.8c0.9-1.5,2-2.6,3.5-3.5s3.1-1.3,4.8-1.3s3.3,0.4,4.8,1.3s2.6,2,3.5,3.5
			C970.6,53.8,971,55.4,971,57.1z M969,57.1c0-2.1-0.7-3.9-2.2-5.4s-3.3-2.2-5.4-2.2c-2.1,0-3.9,0.7-5.4,2.2s-2.2,3.3-2.2,5.3
			c0,1.4,0.3,2.6,1,3.8s1.6,2.1,2.8,2.8s2.5,1,3.8,1c1.4,0,2.6-0.3,3.8-1s2.1-1.6,2.8-2.7C968.7,59.7,969,58.4,969,57.1z
			 M957.5,51.9h4.6c1,0,1.7,0.1,2.2,0.3s0.8,0.6,1.1,1s0.4,1,0.4,1.7c0,0.6-0.1,1-0.3,1.4s-0.5,0.7-1,1c0.4,0.2,0.6,0.5,0.8,0.7
			c0.1,0.3,0.2,0.7,0.3,1.4c0.1,1.3,0.1,2.1,0.2,2.3c0.1,0.2,0.2,0.4,0.4,0.6h-2.6c-0.1-0.3-0.2-0.5-0.2-0.7s-0.1-0.5-0.1-1
			c0-0.9-0.1-1.5-0.2-1.7c-0.1-0.2-0.2-0.4-0.4-0.5s-0.6-0.2-1.1-0.2h-1.9v4.1h-2.3L957.5,51.9L957.5,51.9z M959.8,53.9v2.5h1.9
			c0.7,0,1.2-0.1,1.5-0.3s0.4-0.5,0.4-1c0-0.4-0.1-0.8-0.4-0.9s-0.7-0.3-1.5-0.3H959.8z"/>
	</g>
</g>
<g>
	<path class="st0" d="M883,146.7c2.6,2.2,3.9,5.2,3.9,9c0,3.8-1.3,6.8-3.9,8.9c-2.6,2.2-6.1,3.2-10.7,3.2h-9.6V179H859v-35.6h13.3
		C876.8,143.4,880.4,144.5,883,146.7z M880.3,162.1c1.9-1.5,2.8-3.7,2.8-6.5c0-2.9-0.9-5.1-2.8-6.6c-1.9-1.5-4.6-2.3-8.1-2.3h-9.5
		v17.8h9.5C875.7,164.5,878.4,163.7,880.3,162.1z"/>
	<path class="st0" d="M924.7,143.4V179h-3.1l-22.9-28.9V179H895v-35.6h3.1l22.9,28.9v-28.9H924.7z"/>
	<path class="st0" d="M958.7,169.5h-19.8l-4.3,9.5h-3.9l16.3-35.6h3.7l16.3,35.6h-4L958.7,169.5z M957.3,166.4l-8.5-19.1l-8.5,19.1
		H957.3z"/>
</g>
</svg>
